# xmcd
#
# Track frame offsets: 
#        182
#        15027
#        27977
#        40027
#        57627
#        79965
#        94252
#        107290
#        126942
#        165350
#        183310
#        202420
#        219687
#        228520
#        246182
#
# Disc length: 3651 seconds
#
# Revision: 6
# Processed by: cddbd v1.5.2PL0 Copyright (c) Steve Scherf et al.
# Submitted via: ExactAudioCopy v1.0b6
#
DISCID=c70e410f
DTITLE=Blues - Back to Blues - Back to Blues II CD2
DYEAR=1991
DGENRE=Blues
TTITLE0=Humble Pie - Growing Closer (1969)
TTITLE1=Etta James - Spoonful (1960)
TTITLE2=Animals - Bring It On Home To Me (1978)
TTITLE3=Bobby McFerrin - You've Got A Hold On Me (1982)
TTITLE4=Luther "Guitar Junior" Johnson and The Magic Rockers - I'm From 
TTITLE4=Mississippi (1990)
TTITLE5=Charles Brown - Nobody Knows The Trouble I#ve Seen (1990)
TTITLE6=The Nylons - So Long (1982)
TTITLE7=Chris Hardy - Mica (1973)
TTITLE8=Ike And Tina Turner - I've Been Loving You Too Long (1971)
TTITLE9=Lightnin´ Hopkins - Want To Come Home (1990)
TTITLE10=Savoy Brown Blues Band - True Blue (1968)
TTITLE11=Screaming Jay Hawkins - Don't Deceive Me (1989)
TTITLE12=Tony McPhee - When You Got A Good Friend (1968)
TTITLE13=Little Feat - A Apolitical Blues (1972)
TTITLE14=Gary Moore - Still Got The Blues (1990)
EXTD=YEAR: 1991
EXTT0=
EXTT1=
EXTT2=
EXTT3=
EXTT4=
EXTT5=
EXTT6=
EXTT7=
EXTT8=
EXTT9=
EXTT10=
EXTT11=
EXTT12=
EXTT13=
EXTT14=
PLAYORDER=
